# xmcd CD database file
#
# Track frame offsets:
#	150
#	11493
#	24725
#	34870
#	44855
#	56113
#	67184
#	76995
#	88131
#	98689
#	114718
#	126060
#	161017
#	170950
#	184362
#
# Disc length: 2575 seconds
#
# Revision: 1
# Processed by: cddbd v1.5.1PL2 Copyright (c) Steve Scherf et al.
# Submitted via: CDex 1.51
#
DISCID=db0a0d0f
DTITLE=John Lee Hooker - The Best of John Lee Hooker
DYEAR=2001
DGENRE=Blues
TTITLE0=Boom Boom
TTITLE1=I Want To Hug You
TTITLE2=Dimples
TTITLE3=I'm Leaving You
TTITLE4=Good Rockin Mamma
TTITLE5=Send Me Your Pillow
TTITLE6=Onions
TTITLE7=No shoes
TTITLE8=Please Don't Go
TTITLE9=Thelma
TTITLE10=Hard Hearted Woman
TTITLE11=Boogie On
TTITLE12=Dusty Road
TTITLE13=Baby Lee
TTITLE14=Hobo Blues
EXTD=YEAR: 2001
EXTT0=
EXTT1=
EXTT2=
EXTT3=
EXTT4=
EXTT5=
EXTT6=
EXTT7=
EXTT8=
EXTT9=
EXTT10=
EXTT11=
EXTT12=
EXTT13=
EXTT14=
PLAYORDER=
